<?xml version="1.0"?>
<svg version="1.1" xmlns="http://www.w3.org/2000/svg" width="400px" height="200px" style=""><path fill="#3875a1" d=""/><path fill="#45a39e" d="M72.036,114.42c0,0.504-0.196,0.7-0.672,0.7l-1.96,0c-0.504,0-0.728-0.196-0.728-0.7l0-7.672c0-1.512-0.392-2.66-2.1-2.66c-1.064,0-2.296,0.56-3.164,1.26c0.056,0.252,0.112,4.004,0.112,4.396l0,4.676c0,0.504-0.196,0.7-0.672,0.7l-1.848,0c-0.504,0-0.728-0.196-0.728-0.7l0-7.672c0-1.484-0.308-2.66-2.016-2.66c-1.092,0-2.212,0.616-3.108,1.4l0,8.932c0,0.504-0.224,0.7-0.7,0.7l-1.96,0c-0.504,0-0.728-0.196-0.728-0.7l0-12.236c0-0.448,0.252-0.644,0.672-0.644l1.82,0c0.42,0,0.672,0.14,0.7,0.532l0.028,0.7c1.148-1.008,2.66-1.596,4.116-1.596c1.708,0,2.912,0.756,3.556,1.82c1.26-1.204,3.08-1.82,4.788-1.82c2.044,0,3.332,1.008,3.92,2.1c0.532,1.036,0.672,2.268,0.672,4.06l0,7.084z M89.102,108.288c0,0.672-0.224,0.812-0.924,0.812l-8.204,0c0.224,2.156,1.792,3.64,4.004,3.64c1.176,0,2.408-0.28,3.444-0.672c0.112-0.028,0.196-0.084,0.308-0.084c0.196,0,0.336,0.112,0.392,0.336l0.392,1.428c0.028,0.14,0.056,0.252,0.056,0.336c0,0.196-0.112,0.336-0.448,0.476c-1.372,0.616-3.248,0.896-4.704,0.896c-4.396,0-7-2.8-7-7.168c0-4.2,2.772-7.112,6.944-7.112c1.708,0,3.108,0.644,4.088,1.68c1.288,1.344,1.652,3.108,1.652,5.012l0,0.42z M85.77,106.888l0-0.308c-0.056-1.456-0.896-2.8-2.604-2.8c-1.82,0-2.912,1.456-3.136,3.108l5.74,0z M97.096,97.984c0,1.092-0.952,1.764-1.876,1.764s-1.904-0.616-1.904-1.736s0.924-1.792,1.904-1.792c0.952,0,1.876,0.644,1.876,1.764z M96.928,114.42c0,0.504-0.224,0.7-0.7,0.7l-1.96,0c-0.504,0-0.728-0.196-0.728-0.7l0-12.236c0-0.476,0.28-0.644,0.728-0.644l1.96,0c0.448,0,0.7,0.14,0.7,0.644l0,12.236z M110.746,114.28c0,0.28-0.14,0.42-0.42,0.532c-0.868,0.364-2.016,0.644-3.136,0.644c-1.428,0-2.66-0.364-3.36-1.176c-0.868-0.98-0.896-2.128-0.896-4.172l0-6.244l-1.316,0c-0.532,0-0.616-0.112-0.616-0.7l0-1.064c0-0.336,0.168-0.56,0.504-0.56l1.428,0l0-3.052c0-0.476,0.252-0.616,0.7-0.672l2.016-0.252l0.14,0c0.364,0,0.532,0.196,0.532,0.616l0,3.36l3.164,0c0.336,0,0.532,0.112,0.532,0.476l0,1.316c0,0.336-0.224,0.532-0.56,0.532l-3.136,0l0,6.412c0,0.84,0.056,1.456,0.364,1.904c0.252,0.364,0.644,0.588,1.316,0.588c0.7,0,1.288-0.168,1.792-0.336c0.112-0.028,0.196-0.056,0.28-0.056c0.196,0,0.308,0.112,0.364,0.336l0.28,1.4c0.028,0.084,0.028,0.112,0.028,0.168z M126.468,108.288c0,0.672-0.224,0.812-0.924,0.812l-8.204,0c0.224,2.156,1.792,3.64,4.004,3.64c1.176,0,2.408-0.28,3.444-0.672c0.112-0.028,0.196-0.084,0.308-0.084c0.196,0,0.336,0.112,0.392,0.336l0.392,1.428c0.028,0.14,0.056,0.252,0.056,0.336c0,0.196-0.112,0.336-0.448,0.476c-1.372,0.616-3.248,0.896-4.704,0.896c-4.396,0-7-2.8-7-7.168c0-4.2,2.772-7.112,6.944-7.112c1.708,0,3.108,0.644,4.088,1.68c1.288,1.344,1.652,3.108,1.652,5.012l0,0.42z M123.136,106.888l0-0.308c-0.056-1.456-0.896-2.8-2.604-2.8c-1.82,0-2.912,1.456-3.136,3.108l5.74,0z M142.022,114.784c0,0.252-0.252,0.336-0.532,0.336l-2.408,0c-0.504,0-0.84-0.14-1.12-0.588l-3.584-5.88l-0.308,0.28l0,3.892l0,1.596c0,0.476-0.196,0.7-0.644,0.7l-2.1,0c-0.42,0-0.644-0.252-0.644-0.672l0-18.368c0-0.448,0.168-0.616,0.588-0.672l2.044-0.28c0.084,0,0.14-0.028,0.224-0.028c0.336,0,0.532,0.168,0.532,0.644l0,4.704l0,6.524l0.056,0l3.668-5.04c0.224-0.308,0.392-0.392,0.756-0.392l2.492,0c0.224,0,0.364,0.112,0.364,0.28c0,0.084-0.028,0.196-0.112,0.308l-4.004,5.04l4.536,7.084c0.112,0.168,0.196,0.364,0.196,0.532z M149.68,97.984c0,1.092-0.952,1.764-1.876,1.764s-1.904-0.616-1.904-1.736s0.924-1.792,1.904-1.792c0.952,0,1.876,0.644,1.876,1.764z M149.512,114.42c0,0.504-0.224,0.7-0.7,0.7l-1.96,0c-0.504,0-0.728-0.196-0.728-0.7l0-12.236c0-0.476,0.28-0.644,0.728-0.644l1.96,0c0.448,0,0.7,0.14,0.7,0.644l0,12.236z M167.054,114.392c0,0.476-0.168,0.728-0.672,0.728l-2.016,0c-0.504,0-0.672-0.252-0.672-0.728l0-7.616c0-1.54-0.42-2.632-2.128-2.632c-1.092,0-2.436,0.588-3.304,1.344l0,8.932c0,0.476-0.196,0.7-0.672,0.7l-2.044,0c-0.42,0-0.672-0.224-0.672-0.672l0-12.208c0-0.448,0.196-0.7,0.7-0.7l1.82,0c0.392,0,0.644,0.112,0.672,0.532l0.028,0.728c1.288-1.036,2.912-1.624,4.536-1.624c3.136,0,4.424,1.96,4.424,5.012l0,8.204z M176.028,97.984c0,1.092-0.952,1.764-1.876,1.764s-1.904-0.616-1.904-1.736s0.924-1.792,1.904-1.792c0.952,0,1.876,0.644,1.876,1.764z M175.86,114.42c0,0.504-0.224,0.7-0.7,0.7l-1.96,0c-0.504,0-0.728-0.196-0.728-0.7l0-12.236c0-0.476,0.28-0.644,0.728-0.644l1.96,0c0.448,0,0.7,0.14,0.7,0.644l0,12.236z M193.052,114.42c0,0.476-0.224,0.7-0.616,0.7l-2.128,0c-0.392,0-0.644-0.196-0.644-0.672l0-18.368c0-0.476,0.196-0.616,0.56-0.672l2.016-0.28c0.056,0,0.14-0.028,0.196-0.028c0.336,0,0.616,0.168,0.616,0.616l0,18.704z M210.118,108.288c0,0.672-0.224,0.812-0.924,0.812l-8.204,0c0.224,2.156,1.792,3.64,4.004,3.64c1.176,0,2.408-0.28,3.444-0.672c0.112-0.028,0.196-0.084,0.308-0.084c0.196,0,0.336,0.112,0.392,0.336l0.392,1.428c0.028,0.14,0.056,0.252,0.056,0.336c0,0.196-0.112,0.336-0.448,0.476c-1.372,0.616-3.248,0.896-4.704,0.896c-4.396,0-7-2.8-7-7.168c0-4.2,2.772-7.112,6.944-7.112c1.708,0,3.108,0.644,4.088,1.68c1.288,1.344,1.652,3.108,1.652,5.012l0,0.42z M206.786,106.888l0-0.308c-0.056-1.456-0.896-2.8-2.604-2.8c-1.82,0-2.912,1.456-3.136,3.108l5.74,0z M227.52,114.588c0,0.336-0.224,0.532-0.56,0.532l-1.344,0c-1.456,0-2.1-0.7-2.296-1.652l-0.056,0c-0.7,1.036-2.52,1.988-4.06,1.988c-3.948,0-5.74-3.248-5.74-6.888c0-4.844,2.912-7.392,6.048-7.392c1.484,0,2.884,0.672,3.584,1.624l0.056-0.756c0.028-0.308,0.252-0.504,0.588-0.504l1.96,0c0.364,0,0.588,0.196,0.588,0.616l0,9.716c0,0.392,0.056,0.672,0.168,0.812c0.084,0.084,0.196,0.112,0.336,0.112l0.224,0c0.336,0,0.504,0.112,0.504,0.476l0,1.316z M222.9,110.78l0-5.404c-0.56-0.812-1.708-1.428-2.772-1.428c-1.708,0-3.164,1.456-3.164,4.396c0,2.352,0.896,4.34,2.968,4.34c1.372,0,2.548-1.036,2.968-1.904z M242.962,114.784c0,0.252-0.252,0.336-0.532,0.336l-2.408,0c-0.504,0-0.84-0.14-1.12-0.588l-3.584-5.88l-0.308,0.28l0,3.892l0,1.596c0,0.476-0.196,0.7-0.644,0.7l-2.1,0c-0.42,0-0.644-0.252-0.644-0.672l0-18.368c0-0.448,0.168-0.616,0.588-0.672l2.044-0.28c0.084,0,0.14-0.028,0.224-0.028c0.336,0,0.532,0.168,0.532,0.644l0,4.704l0,6.524l0.056,0l3.668-5.04c0.224-0.308,0.392-0.392,0.756-0.392l2.492,0c0.224,0,0.364,0.112,0.364,0.28c0,0.084-0.028,0.196-0.112,0.308l-4.004,5.04l4.536,7.084c0.112,0.168,0.196,0.364,0.196,0.532z M258.712,108.288c0,0.672-0.224,0.812-0.924,0.812l-8.204,0c0.224,2.156,1.792,3.64,4.004,3.64c1.176,0,2.408-0.28,3.444-0.672c0.112-0.028,0.196-0.084,0.308-0.084c0.196,0,0.336,0.112,0.392,0.336l0.392,1.428c0.028,0.14,0.056,0.252,0.056,0.336c0,0.196-0.112,0.336-0.448,0.476c-1.372,0.616-3.248,0.896-4.704,0.896c-4.396,0-7-2.8-7-7.168c0-4.2,2.772-7.112,6.944-7.112c1.708,0,3.108,0.644,4.088,1.68c1.288,1.344,1.652,3.108,1.652,5.012l0,0.42z M255.38,106.888l0-0.308c-0.056-1.456-0.896-2.8-2.604-2.8c-1.82,0-2.912,1.456-3.136,3.108l5.74,0z M275.19,101.932c0,0.084-0.028,0.168-0.056,0.28l-5.516,14.504c-1.26,3.332-2.828,4.508-6.188,4.508c-0.532,0-1.008-0.028-1.484-0.14c-0.308-0.056-0.42-0.224-0.42-0.476c0-0.084,0.028-0.14,0.028-0.252l0.196-1.456c0.056-0.364,0.196-0.504,0.504-0.504l0.168,0c0.336,0.028,0.672,0.084,0.952,0.084c1.736,0,2.464-0.616,3.024-1.932l0.532-1.26l-5.096-13.132c-0.028-0.084-0.056-0.14-0.056-0.224c0-0.224,0.168-0.392,0.42-0.392l2.688,0c0.392,0,0.588,0.196,0.7,0.476l3.108,9.268l2.94-9.1c0.14-0.448,0.364-0.644,0.84-0.644l2.268,0c0.28,0,0.448,0.168,0.448,0.392z"/></svg>
